<svg width="1854" height="1393"
    xmlns="http://www.w3.org/2000/svg"
    xmlns:xlink="http://www.w3.org/1999/xlink" overflow="hidden">
    <defs>
        <clipPath id="clip0">
            <rect x="16" y="15" width="1854" height="1393"/>
        </clipPath>
    </defs>
    <g clip-path="url(#clip0)" transform="translate(-16 -15)">
        <rect x="111" y="536" width="80" height="640" fill="#B0C6E1"/>
        <rect x="272" y="896" width="80" height="496" fill="#B0C6E1"/>
        <rect x="272" y="1184" width="1584" height="64" fill="#B0C6E1"/>
        <rect x="273" y="1328" width="1584" height="64" fill="#B0C6E1"/>
        <rect x="272" y="320" width="80" height="496" fill="#B0C6E1"/>
        <rect x="272" y="320" width="1584" height="64" fill="#B0C6E1"/>
        <rect x="272" y="464" width="1584" height="64" fill="#B0C6E1"/>
        <rect x="272" y="608" width="1584" height="64" fill="#B0C6E1"/>
        <rect x="272" y="752" width="1584" height="64" fill="#B0C6E1"/>
        <rect x="272" y="896" width="1584" height="64" fill="#B0C6E1"/>
        <rect x="272" y="1040" width="1584" height="64" fill="#B0C6E1"/>
        <rect x="944" y="15.0001" width="160" height="1393" fill="#C0504D" fill-opacity="0.4"/>
        <rect x="1184" y="15.0001" width="160" height="1393" fill="#C0504D" fill-opacity="0.4"/>
        <rect x="1664" y="15.0001" width="160" height="1393" fill="#C0504D" fill-opacity="0.4"/>
        <rect x="1424" y="15.0001" width="160" height="1393" fill="#C0504D" fill-opacity="0.4"/>
        <rect x="112" y="536" width="392" height="64" fill="#B0C6E1"/>
        <rect x="112" y="1112" width="392" height="64" fill="#B0C6E1"/>
        <rect x="16" y="824" width="528" height="64" fill="#B0C6E1"/>
        <path d="M1632.5 325.834C1632.5 305.215 1649.21 288.5 1669.83 288.5L1819.17 288.5C1839.79 288.5 1856.5 305.215 1856.5 325.834L1856.5 811.166C1856.5 831.785 1839.79 848.5 1819.17 848.5L1669.83 848.5C1649.21 848.5 1632.5 831.785 1632.5 811.166Z" stroke="#632523" stroke-width="26.6667" stroke-linejoin="round" stroke-miterlimit="10" fill="#953735" fill-rule="evenodd"/>
    </g>
</svg>