<svg width="1841" height="1393" xmlns="http://www.w3.org/2000/svg" xmlns:xlink="http://www.w3.org/1999/xlink" overflow="hidden"><defs><clipPath id="clip0"><rect x="16" y="15" width="1841" height="1393"/></clipPath></defs><g clip-path="url(#clip0)" transform="translate(-16 -15)"><rect x="111" y="536" width="80" height="640" fill="#B0C6E1"/><rect x="272" y="896" width="80" height="496" fill="#B0C6E1"/><rect x="272" y="1184" width="1584" height="64" fill="#B0C6E1"/><rect x="273" y="1328" width="1584" height="64" fill="#B0C6E1"/><rect x="272" y="320" width="80" height="496" fill="#B0C6E1"/><rect x="272" y="320" width="1584" height="64" fill="#B0C6E1"/><rect x="272" y="464" width="1584" height="64" fill="#B0C6E1"/><rect x="272" y="608" width="1584" height="64" fill="#B0C6E1"/><rect x="272" y="752" width="1584" height="64" fill="#B0C6E1"/><rect x="272" y="896" width="1584" height="64" fill="#B0C6E1"/><rect x="272" y="1040" width="1584" height="64" fill="#B0C6E1"/><rect x="944" y="15.0001" width="160" height="1393" fill="#C0504D" fill-opacity="0.4"/><rect x="1184" y="15.0001" width="160" height="1393" fill="#C0504D" fill-opacity="0.4"/><rect x="1664" y="15.0001" width="160" height="1393" fill="#C0504D" fill-opacity="0.4"/><rect x="1424" y="15.0001" width="160" height="1393" fill="#C0504D" fill-opacity="0.4"/><rect x="112" y="536" width="392" height="64" fill="#B0C6E1"/><rect x="112" y="1112" width="392" height="64" fill="#B0C6E1"/><rect x="16" y="824" width="528" height="64" fill="#B0C6E1"/><path d="M911.5 372.017C911.5 329.206 946.206 294.5 989.017 294.5L1299.08 294.5C1341.89 294.5 1376.59 329.206 1376.59 372.017L1376.59 1202.98C1376.59 1245.79 1341.89 1280.5 1299.08 1280.5L989.017 1280.5C946.206 1280.5 911.5 1245.79 911.5 1202.98Z" stroke="#632523" stroke-width="26.6667" stroke-linejoin="round" stroke-miterlimit="10" fill="#953735" fill-rule="evenodd"/></g></svg>