<svg width="1851" height="1423"
    xmlns="http://www.w3.org/2000/svg"
    xmlns:xlink="http://www.w3.org/1999/xlink" overflow="hidden">
    <defs>
        <clipPath id="clip0">
            <rect x="6" y="-4" width="1851" height="1423"/>
        </clipPath>
    </defs>
    <g clip-path="url(#clip0)" transform="translate(-6 4)">
        <rect x="111" y="536" width="80" height="640" fill="#B0C6E1"/>
        <rect x="272" y="896" width="80" height="496" fill="#B0C6E1"/>
        <rect x="272" y="1184" width="1584" height="64" fill="#B0C6E1"/>
        <text font-family="Calibri,Calibri_MSFontService,sans-serif" font-weight="400" font-size="48" transform="translate(291.2 1232)">Content Metadata</text>
        <rect x="273" y="1328" width="1584" height="64" fill="#B0C6E1"/>
        <text font-family="Calibri,Calibri_MSFontService,sans-serif" font-weight="400" font-size="48" transform="translate(291.881 1376)">Content Packaging &amp; Integration</text>
        <rect x="272" y="320" width="80" height="496" fill="#B0C6E1"/>
        <rect x="272" y="320" width="1584" height="64" fill="#B0C6E1"/>
        <text font-family="Calibri,Calibri_MSFontService,sans-serif" font-weight="400" font-size="48" transform="translate(291.2 368)">Organizational Data</text>
        <rect x="272" y="464" width="1584" height="64" fill="#B0C6E1"/>
        <text font-family="Calibri,Calibri_MSFontService,sans-serif" font-weight="400" font-size="48" transform="translate(291.2 512)">Personal / Identity Data</text>
        <rect x="272" y="608" width="1584" height="64" fill="#B0C6E1"/>
        <text font-family="Calibri,Calibri_MSFontService,sans-serif" font-weight="400" font-size="48" transform="translate(291.2 656)">Event Data</text>
        <rect x="272" y="752" width="1584" height="64" fill="#B0C6E1"/>
        <text font-family="Calibri,Calibri_MSFontService,sans-serif" font-weight="400" font-size="48" transform="translate(291.2 800)">Achievement Assertions</text>
        <rect x="272" y="896" width="1584" height="64" fill="#B0C6E1"/>
        <text font-family="Calibri,Calibri_MSFontService,sans-serif" font-weight="400" font-size="48" transform="translate(291.2 944)">Credential Data Model</text>
        <rect x="272" y="1040" width="1584" height="64" fill="#B0C6E1"/>
        <text font-family="Calibri,Calibri_MSFontService,sans-serif" font-weight="400" font-size="48" transform="translate(291.2 1088)">Competency Data Model</text>
        <rect x="944" y="15.0001" width="160" height="1393" fill="#C0504D" fill-opacity="0.4"/>
        <text font-family="Calibri,Calibri_MSFontService,sans-serif" font-weight="400" font-size="48" transform="matrix(6.12323e-17 1 -1 6.12323e-17 1036.6 25)">1. Data<tspan font-size="48" x="-3.55148e-15" y="58">Dictionary</tspan>
        </text>
        <rect x="1184" y="15.0001" width="160" height="1393" fill="#C0504D" fill-opacity="0.4"/>
        <text font-family="Calibri,Calibri_MSFontService,sans-serif" font-weight="400" font-size="48" transform="matrix(6.12323e-17 1 -1 6.12323e-17 1276.6 25)">2. Logical<tspan font-size="48" x="-3.55148e-15" y="58">Data Model</tspan>
        </text>
        <rect x="1664" y="15.0001" width="160" height="1393" fill="#C0504D" fill-opacity="0.4"/>
        <text font-family="Calibri,Calibri_MSFontService,sans-serif" font-weight="400" font-size="48" transform="matrix(6.12323e-17 1 -1 6.12323e-17 1727.8 25)">4. Protocol</text>
        <rect x="1424" y="15.0001" width="160" height="1393" fill="#C0504D" fill-opacity="0.4"/>
        <text font-family="Calibri,Calibri_MSFontService,sans-serif" font-weight="400" font-size="48" transform="matrix(6.12323e-17 1 -1 6.12323e-17 1487.8 25)">3. Serialization</text>
        <rect x="112" y="536" width="392" height="64" fill="#B0C6E1"/>
        <text font-family="Calibri,Calibri_MSFontService,sans-serif" font-weight="400" font-size="48" transform="translate(131.2 584)">Stakeholder Data</text>
        <rect x="112" y="1112" width="392" height="64" fill="#B0C6E1"/>
        <text font-family="Calibri,Calibri_MSFontService,sans-serif" font-weight="400" font-size="48" transform="translate(131.2 1160)">Content Data</text>
        <rect x="16" y="824" width="528" height="64" fill="#B0C6E1"/>
        <text font-family="Calibri,Calibri_MSFontService,sans-serif" font-weight="400" font-size="48" transform="translate(35.2 872)">Learning Data Standards</text>
    </g>
</svg>