<svg xmlns="http://www.w3.org/2000/svg"
    width="600px" height="600px" viewBox="0 0 600 600" preserveAspectRatio="xMidYMid meet">
    <path stroke="fuchsia" fill="black" stroke-width="2" d="M20,70
        h420 a 5 5 90 0 1 5 5 v20 a 5 5 90 0 1 -5 5 h-390 a 5 5 90 0 0 -5 5 v20 a 5 5 90 0 0 5 5
        h390 a 5 5 90 0 1 5 5 v20 a 5 5 90 0 1 -5 5 h-390 a 5 5 90 0 0 -5 5 v20 a 5 5 90 0 0 5 5
        h390 a 5 5 90 0 1 5 5 v20 a 5 5 90 0 1 -5 5 h-390 a 5 5 90 0 0 -5 5 v20 a 5 5 90 0 0 5 5
        h390 a 5 5 90 0 1 5 5 v20 a 5 5 90 0 1 -5 5 h-390 a 5 5 90 0 0 -5 5 v20 a 5 5 90 0 0 5 5
        h390 a 5 5 90 0 1 5 5 v20 a 5 5 90 0 1 -5 5 h-390 a 5 5 90 0 0 -5 5 v20 a 5 5 90 0 0 5 5
        h390 a 5 5 90 0 1 5 5 v20 a 5 5 90 0 1 -5 5 h-390 a 5 5 90 0 0 -5 5 v20 a 5 5 90 0 0 5 5
        h390 a 5 5 90 0 1 5 5 v20 a 5 5 90 0 1 -5 5 h-390 a 5 5 90 0 0 -5 5 v20 a 5 5 90 0 0 5 5
        h390 a 5 5 90 0 1 5 5 v20 a 5 5 90 0 1 -5 5 h-420 a 5 5 90 0 1 -5 -5 v-440 a 5 5 90 0 1 5 -5"/>
</svg>